# xmcd CD database file generated by OrangeCD 5.1
#
# Track frame offsets:
#	182
#	19485
#	36460
#	52810
#	112085
#	135782
#	155110
#	203092
#
# Disc length: 3873 seconds
#
# Revision: 3
# Processed by: cddbd v1.5PL3 Copyright (c) Steve Scherf et al.
# Submitted via: OrangeCD 5.1
#
DISCID=6b0f1f08
DTITLE=The Allman Brothers Band - The Fillmore Concerts [CD1]
DYEAR=1992
DGENRE=Southern Rock
TTITLE0=Statesboro Blues
TTITLE1=Trouble No More
TTITLE2=Don't Keep We Wonderin'
TTITLE3=In Memory of Elizabeth Reed
TTITLE4=One Way Out
TTITLE5=Done Somebody Wrong
TTITLE6=Stormy Monday
TTITLE7=You Don't Love Me
EXTD="The Fillmore Concerts" was compiled from five performances\nrecorded Marc
EXTD=h 12, 1971 (two shows), March 13, 1971,\n(two shows) and June 27, 1971 at 
EXTD=the FILLMORE EAST in\nNew York. YEAR: 1992 ID3G:   0
EXTT0=
EXTT1=
EXTT2=
EXTT3=
EXTT4=
EXTT5=
EXTT6=
EXTT7=
PLAYORDER=
